<?xml version="1.0" encoding="utf-8"?>
<!-- Generator: Adobe Illustrator 24.2.0, SVG Export Plug-In . SVG Version: 6.00 Build 0)  -->
<svg version="1.1" id="Ebene_1" xmlns="http://www.w3.org/2000/svg" xmlns:xlink="http://www.w3.org/1999/xlink" x="0px" y="0px"
	 viewBox="0 0 940 220" style="enable-background:new 0 0 940 220;" xml:space="preserve">
<style type="text/css">
	.st0{fill:#3D4F65;}
</style>
<g>
	<g>
		<g>
			<path class="st0" d="M353.3,74.5h-6v7.2h-4.1V63.8h10.9l0.5,3.2h-7.3v4.3h5.6L353.3,74.5z"/>
			<path class="st0" d="M359.3,81.7v-18h11.3l0.5,3.2h-7.7v4h5.7l0.5,3.2h-6.2v4.2h8.2l0.5,3.2H359.3z"/>
			<path class="st0" d="M383.8,63.7c1.3,0,2.6,0.2,3.6,0.6c1.1,0.4,2,1,2.6,1.9s1,2,1,3.3c0,1.1-0.3,2-0.8,2.8
				c-0.5,0.8-1.2,1.4-2,1.9l4.2,7.4h-4.6l-3.3-6.2c-0.3,0-0.6,0-0.8,0c-0.3,0-0.5,0-0.8,0h-1.6v6.2h-4.1v-18H383.8z M381.4,67.1v5.1
				h2.4c0.6,0,1.1-0.1,1.5-0.3c0.4-0.2,0.8-0.5,1.1-0.8s0.4-0.8,0.4-1.4c0-0.6-0.1-1.1-0.4-1.5s-0.6-0.7-1-0.8
				c-0.4-0.2-1-0.3-1.7-0.3H381.4z"/>
			<path class="st0" d="M397.2,81.7v-18h4.1v18H397.2z"/>
			<path class="st0" d="M407.9,81.7v-18h11.3l0.5,3.2H412v4h5.7l0.5,3.2H412v4.2h8.2l0.5,3.2H407.9z"/>
			<path class="st0" d="M425.8,81.7v-18h4l6.4,9.1l1.2,1.7l0-10.9h4.1v18h-4l-6.6-9.3l-1-1.4v10.7H425.8z"/>
			<path class="st0" d="M470.9,63.7l-5.3,18h-3.9l-3.3-12.2l-3.2,12.2h-3.9L446,64l4.1-0.5l3.3,13l3-12.7h4.1l3.2,12.7l3-12.7H470.9
				z"/>
			<path class="st0" d="M483,82.1c-1.9,0-3.5-0.4-4.9-1.2c-1.4-0.8-2.4-1.9-3.1-3.4c-0.7-1.4-1.1-3-1.1-4.7c0-1.8,0.4-3.5,1.2-4.9
				c0.8-1.4,1.8-2.5,3.2-3.3c1.4-0.8,2.9-1.2,4.7-1.2c1.9,0,3.6,0.4,4.9,1.2c1.3,0.8,2.4,1.9,3.1,3.3c0.7,1.4,1.1,3,1.1,4.7
				c0,1.8-0.4,3.5-1.1,4.9s-1.8,2.5-3.2,3.3C486.4,81.6,484.8,82.1,483,82.1z M483,78.6c0.9,0,1.7-0.2,2.4-0.7
				c0.7-0.4,1.3-1.1,1.7-2c0.4-0.9,0.6-2,0.6-3.3c0-1.1-0.2-2.1-0.6-3c-0.4-0.9-0.9-1.5-1.6-2c-0.7-0.5-1.6-0.8-2.6-0.8
				c-0.8,0-1.6,0.2-2.4,0.7c-0.7,0.5-1.3,1.2-1.8,2.1c-0.4,0.9-0.7,1.9-0.7,3.1c0,1.1,0.2,2.1,0.6,3c0.4,0.9,0.9,1.6,1.6,2.1
				C481.2,78.4,482,78.6,483,78.6z"/>
			<path class="st0" d="M508.3,81.7v-7.3h-6.7v7.3h-4.1v-18l4.1-0.2v7.6h6.7v-7.4h4.1v18H508.3z"/>
			<path class="st0" d="M519,81.7v-18h4l6.4,9.1l1.2,1.7l0-10.9h4.1v18h-4l-6.6-9.3l-1-1.4v10.7H519z"/>
			<path class="st0" d="M545.2,74.8c0,0.9,0.2,1.6,0.5,2.2c0.3,0.6,0.7,1,1.3,1.3s1.2,0.4,1.8,0.4c0.7,0,1.3-0.1,1.9-0.4
				s1-0.7,1.3-1.3c0.3-0.6,0.5-1.3,0.5-2.1v-11h4.1V75c0,1.4-0.3,2.7-1,3.7c-0.6,1.1-1.5,1.9-2.7,2.4c-1.2,0.6-2.5,0.9-4.1,0.9
				c-1.5,0-2.9-0.3-4-0.9s-2.1-1.4-2.7-2.5c-0.6-1.1-1-2.3-1-3.7l0-11.2h4.1V74.8z"/>
			<path class="st0" d="M562.9,81.7v-18h4l6.4,9.1l1.2,1.7l0-10.9h4.1v18h-4l-6.6-9.3l-1-1.4v10.7H562.9z"/>
			<path class="st0" d="M592.5,71.6h6.8v9.1c-0.5,0.2-1,0.5-1.7,0.7c-0.7,0.2-1.4,0.4-2.1,0.5c-0.7,0.1-1.4,0.2-2.1,0.2
				c-1.9,0-3.5-0.4-4.9-1.2c-1.4-0.8-2.5-1.9-3.2-3.2c-0.7-1.4-1.1-3-1.1-4.8c0-1.4,0.2-2.7,0.7-3.9c0.5-1.2,1.2-2.1,2-3
				c0.9-0.8,1.9-1.5,3-1.9s2.4-0.7,3.7-0.7c0.5,0,1,0,1.7,0.1c0.7,0.1,1.3,0.2,2,0.4c0.7,0.2,1.2,0.4,1.7,0.7l-1.3,2.9
				c-0.6-0.2-1.1-0.3-1.5-0.4c-0.4-0.1-0.9-0.2-1.2-0.2c-0.4-0.1-0.8-0.1-1.3-0.1c-0.7,0-1.3,0.1-1.9,0.4s-1.2,0.6-1.7,1.1
				c-0.5,0.5-0.9,1.1-1.2,1.9c-0.3,0.7-0.5,1.6-0.5,2.6c0,1.3,0.2,2.4,0.7,3.2c0.5,0.9,1.1,1.5,1.8,2c0.8,0.4,1.6,0.6,2.5,0.6
				c0.4,0,0.8,0,1.2-0.1c0.4,0,0.7-0.1,1-0.1v-3.7h-3.4L592.5,71.6z"/>
		</g>
		<g>
			<path class="st0" d="M466.3,46.6h-0.2c-2.6,0-4.7-0.8-6.6-1.5c-0.5-0.2-0.9-0.7-0.9-1.2V32.6h-3.3c-0.5,0-1-0.3-1.2-0.8
				c-0.2-0.5-0.1-1.1,0.3-1.4l16.7-16.5c0.5-0.5,1.3-0.5,1.8,0l16.7,16.5c0.4,0.4,0.5,0.9,0.3,1.4c-0.2,0.5-0.7,0.8-1.2,0.8h-3.3
				v10.2c0,0.4-0.2,0.8-0.5,1.1c-0.3,0.2-0.8,0.3-1.2,0.2c-1-0.3-2.2-0.5-3.4-0.5c-2.9,0-5.1,0.8-7.2,1.6
				C471,45.9,468.9,46.6,466.3,46.6z M461.2,43c1.6,0.5,3.1,1,4.9,1h0.2c2.1,0,3.9-0.7,5.9-1.4c2.2-0.8,4.8-1.7,8.1-1.7
				c0.9,0,1.7,0.1,2.5,0.2v-9.8c0-0.7,0.6-1.3,1.3-1.3h1.4L472,16.6L458.5,30h1.4c0.7,0,1.3,0.6,1.3,1.3V43z"/>
			<path class="st0" d="M466.3,52h-0.2c-2.6,0-4.7-0.8-6.8-1.5c-1.1-0.4-2.2-0.8-3.4-1.1c-0.7-0.2-1.1-0.9-1-1.6
				c0.2-0.7,0.9-1.1,1.6-1c1.3,0.3,2.5,0.8,3.6,1.2c1.9,0.7,3.8,1.4,5.9,1.4h0.2c2.1,0,3.9-0.7,5.9-1.4c2.2-0.8,4.8-1.7,8.1-1.7
				c2.4,0,4.5,0.5,6.3,1.6c0.6,0.4,0.8,1.2,0.5,1.8c-0.4,0.6-1.2,0.8-1.8,0.5c-1.4-0.8-3.1-1.2-5-1.2c-2.9,0-5.1,0.8-7.2,1.6
				C471,51.3,468.9,52,466.3,52z"/>
		</g>
	</g>
	<g>
		<path class="st0" d="M77.2,147.7c2.4-5.6,5.4-10.7,8.9-15.3c0.3-0.6,0.5-1.2,0.5-1.8c0-1.1-0.6-2.1-1.8-2.8
			c-1.2-0.7-2.7-1.4-4.5-1.9c-1.8-0.5-3.6-0.9-5.3-1.3c-1.8-0.3-3.2-0.5-4.2-0.7c-3.1,6.4-6.1,12.7-9,19c-2.9,6.2-5.7,11.9-8.5,17
			c-2.8,5.1-5.5,9.2-8.2,12.2c-2.7,3.1-5.4,4.7-8.2,4.7c-1.7,0-2.9-0.6-3.6-1.9c-0.7-1.3-1.1-3-1.1-5.2c0-3.2,0.7-7.1,2-11.5
			c1.3-4.4,2.9-8.7,4.9-12.7c1.5-2.9,3.4-6.3,5.9-10.3c2.4-3.9,5.2-7.8,8.2-11.5c3.1-3.7,6.4-6.8,9.9-9.3c3.6-2.5,7.2-3.8,10.9-3.8
			c1.4,0,2.9,0.2,4.5,0.5c1.6,0.3,3,0.8,4.1,1.5c1.2,0.7,1.9,1.7,2,2.9c0.2,0.5,0.5,0.8,0.9,0.8c0.6,0,1.2-0.3,1.9-1
			c0.7-0.7,1-1.6,1-3c0-1-0.2-1.8-0.5-2.6c-0.9-2.3-2.4-4-4.7-5.3c-2.2-1.2-5.3-1.8-9.1-1.8c-6.4,0-12.2,1.1-17.5,3.4
			c-5.3,2.2-10,5.3-14.3,9.1c-4.3,3.9-8,8.2-11.3,12.9c-3.2,4.7-6,9.7-8.3,14.7c-2.3,5.1-4.1,10-5.4,14.7c-1.1,3.8-1.7,7.4-1.7,10.9
			c0,4.5,1.2,8.1,3.6,10.7c2.4,2.7,6.1,4,11.2,4c5.4,0,10.6-2.1,15.5-6.2c4.9-4.1,9-9.9,12.3-17.4c-0.4,1.3-0.8,3.2-1.3,5.5
			c-0.5,2.4-0.7,4.8-0.7,7.2c0,2.6,0.5,5,1.4,7.2c0.9,2.2,2.6,3.5,5.1,4.1c0.8,0.3,1.9,0.4,3.3,0.4c1.4,0,2.8-0.2,4.1-0.6
			c1.3-0.4,2-1.1,2-2c-0.3-0.2-0.7-0.5-1.3-1.1c-0.6-0.6-0.9-1.5-0.9-2.8c0-3.8,0.6-8.3,1.8-13.5C73,158.7,74.8,153.3,77.2,147.7z"
			/>
		<path class="st0" d="M160.6,152.8c-0.5,0-0.9,0.3-1.2,0.8c-0.6,1.2-1.7,3.4-3.4,6.6c-1.6,3.2-3.4,6.1-5.3,8.9
			c-1.5,2.2-3,4.1-4.5,5.7c-1.5,1.6-2.9,2.4-4.1,2.4c-1.1,0-1.6-1-1.6-2.9c0-2.7,1-7,3-12.7c2-5.7,4.9-12.2,8.7-19.4
			c1-1.8,1.7-3.5,2.1-5c0.4-1.5,0.7-2.8,0.7-3.9c0-3-1-5-2.9-6.2c-1.9-1.1-3.8-1.7-5.7-1.7c-1.6,0-2.7,0.3-3.4,0.8
			c-1,0.7-2.2,2-3.8,3.9c-1.5,1.9-3.2,4.1-5,6.6c-1.8,2.5-3.6,4.9-5.3,7.4c0.8-1.5,1.6-3.2,2.6-5.1c0.9-1.9,1.4-3.7,1.4-5.5
			c0-1.2-0.3-2.3-0.9-3.4c-0.6-1-1.6-1.8-3.1-2.4c-2.2-1.1-4.2-1.6-6.1-1.6c-1.3,0-2.5,0.4-3.4,1.1c-0.6,0.4-1.6,1.5-2.8,3.1
			c-1.3,1.6-2.7,3.6-4.3,5.8c-1.6,2.2-3.3,4.6-5,7c-1.7,2.5-3.3,4.7-4.7,6.7c0.1-0.5,0.5-1.4,1.1-2.7c0.7-1.3,1.4-2.6,2.1-3.9
			c0.7-1.4,1.3-2.4,1.5-3.2c0.4-1.3,0.7-2.5,0.7-3.4c0-1.5-0.4-2.9-1.1-4.1c-0.7-1.2-1.7-2.3-2.9-3.2c-1.1-0.9-2.4-1.5-3.9-1.9
			c-1.4-0.4-2.9-0.6-4.3-0.6c-1.4,0-2.1,0.5-2.1,1.6c0,0.2,0.1,0.4,0.3,0.8c0.2,0.4,0.1,1.3-0.3,2.6c-0.4,1.3-0.9,2.7-1.5,4.3
			c-0.7,1.6-1.3,3.2-1.9,4.6c-0.6,1.4-1.1,2.5-1.3,3.2c-1.2,3.1-2.7,6.4-4.3,10c-1.7,3.6-3.1,7.1-4.3,10.5c-1.2,3.4-1.8,6.3-1.8,8.6
			c0,3,0.6,5.1,1.9,6.4c1.3,1.3,2.9,2.1,4.8,2.5c1.9,0.4,3.9,0.8,5.9,1.1c1,0.2,1.4,0,1.4-0.4c0-0.2-0.1-0.4-0.4-0.7
			c-0.6-0.6-0.9-1.6-0.9-3c0-2.1,0.7-4.7,2.1-7.9c1.4-3.2,3.2-6.5,5.4-10.1c2.2-3.6,4.5-7,6.8-10.3c2.4-3.3,4.5-6.2,6.5-8.7
			c2-2.5,3.4-4.1,4.4-5c-0.9,1.4-1.9,3.4-3.1,6c-1.2,2.6-2.3,5.2-3.4,7.8c-1.1,2.6-2,4.7-2.7,6.3c-0.9,2-1.9,4.7-3,7.9
			c-1.1,3.2-1.6,6.3-1.6,9.2c0,2.4,0.6,4.4,1.8,6.1c1.2,1.7,3.3,2.5,6.4,2.5c0.8,0,1.6-0.1,2.4-0.3c0.8-0.2,1.6-0.5,2.4-0.7
			c-0.5-0.7-0.8-1.7-0.8-2.9c0-1.9,0.6-4.4,1.8-7.4c1.2-3,2.7-6.2,4.5-9.5c1.8-3.4,3.7-6.6,5.8-9.8c2.1-3.2,4-5.9,5.7-8.4
			c1.8-2.4,3.2-4.1,4.2-4.9c-0.4,1.9-1.3,4.3-2.7,7.2c-1.4,2.9-2.5,5.8-3.5,8.7c-0.2,0.7-0.6,2-1.2,3.8c-0.6,1.8-1.2,3.9-1.7,6.2
			c-0.5,2.3-0.8,4.7-0.8,7c0,3.2,0.8,5.9,2.4,8.3c1.6,2.4,4.6,3.6,8.9,3.6c2.2,0,4.3-0.8,6.4-2.5c2.1-1.7,4.1-3.7,6.1-6.2
			c1.8-2.3,3.4-4.7,4.9-7.2c1.5-2.5,2.8-4.8,4-7c1.2-2.1,2.1-3.8,2.7-5.1c0.3-0.7,0.3-1.3-0.2-1.9
			C161.6,153,161.1,152.8,160.6,152.8z"/>
		<path class="st0" d="M286.7,125.9c1.1-2.1,2.3-4.5,3.6-7.3c1.2-2.8,1.8-5.5,1.8-8.1c0-1.8-0.4-3.4-1.2-4.8
			c-0.8-1.4-2.2-2.7-4.1-3.6c-1.5-0.8-2.7-1.4-3.7-1.8c-1-0.4-1.8-0.7-2.5-0.7c-0.9,0-2.1,0.5-3.6,1.6c-0.4,0.3-1.4,1.3-3.1,3.2
			c-1.7,1.9-3.8,4.3-6.3,7.1c-2.5,2.9-5.1,5.9-7.9,9.2c-2.8,3.3-5.4,6.4-8,9.5c-2.6,3-4.8,5.7-6.5,8c3.7-5.7,6.9-10.7,9.6-15.1
			c2.7-4.4,4.1-8,4.1-10.8c0-2.2-0.9-3.9-2.8-5c-1.1-0.7-2.2-1.2-3.2-1.4c-1-0.3-1.9-0.4-2.9-0.4c-1.7,0-3.1,0.3-4.3,0.9
			c-1.2,0.6-2,1-2.4,1.4c-1.2,0.9-3,2.6-5.3,5.1c-2.3,2.5-4.9,5.4-7.6,8.7s-5.5,6.6-8.2,9.9c-2.7,3.3-5,6.2-6.9,8.8
			c-0.4,0.4-0.5,0.4-0.6-0.2c0-0.6,0.2-1.3,0.7-2.2c0.9-1.3,2-3,3.5-4.9c1.4-2,2.9-4,4.4-6c1.5-2,2.8-3.7,3.9-5.1
			c0.5-0.7,1.3-1.7,2.4-3c1.1-1.3,2.1-2.7,3.2-4.2c1.1-1.5,2-2.9,2.7-4.1c0.7-1.2,1-2.1,0.8-2.6c-0.4-1.3-1.1-2.9-2.3-4.6
			c-1.2-1.8-2.5-2.8-4-3.2c-1.9-0.3-4.4,0-7.4,1c-3,1-6.2,2.4-9.7,4.1c-3.5,1.8-6.9,3.5-10.4,5.3c-3.5,1.8-6.7,3.3-9.7,4.5
			c-3,1.2-5.4,1.8-7.2,1.8c-0.7,0-1.4-0.1-2-0.3c-0.6-0.2-0.9-0.6-0.9-1.3c0-0.2,0.1-0.4,0.2-0.7c0.1-0.3,0.2-0.6,0.3-0.9
			c0.3-0.4,0.4-0.8,0.4-1.1c0-0.6-0.4-0.9-1.1-0.9c-0.4,0-0.8,0.2-1.4,0.5c-0.6,0.3-1.1,0.8-1.6,1.5c-1.8,2.5-3.2,5.2-4.4,8
			c-1.2,2.8-1.8,5.2-1.8,7.2c0,2.1,0.7,3.4,2.2,3.9c0.7,0.3,1.4,0.4,2,0.5c0.7,0.1,1.3,0.1,1.9,0.1c2.5,0,5.2-0.7,7.8-2.2
			c2.7-1.4,5.3-3.2,7.9-5.4c2.6-2.1,5.1-4.4,7.4-6.6c2.4-2.3,4.6-4.3,6.6-6.1c2-1.8,3.8-2.9,5.3-3.4c1.1-0.4,1.6-0.3,1.6,0.5
			c0,0.8-0.5,2.1-1.5,3.8c-1,1.8-2.1,3.4-3.2,5c-1.1,1.6-1.8,2.6-2,3c-2.6,4.4-5.1,9-7.3,13.8c-2.2,4.8-4.2,9.4-5.9,14
			c-1.7,4.5-3.1,8.6-4.1,12.2c-1,3.6-1.6,6.6-1.9,8.8c-0.1,0.5-0.2,1-0.2,1.4c0,0.4-0.1,0.9-0.1,1.3c0,3.5,1.1,6,3.2,7.6
			c2.1,1.5,5.4,2.3,9.7,2.3c0.9,0,1.3-0.1,1.3-0.4l-0.3-0.5c-1-1.1-1.4-2.7-1.4-4.6c0-4.1,0.9-8.5,2.8-13.2
			c1.8-4.7,4.3-9.4,7.4-14.2c3.1-4.8,6.4-9.4,10-14c3.6-4.5,7.2-8.6,10.7-12.4c3.6-3.7,6.7-6.9,9.5-9.4c-0.6,1-1.6,2.7-3,5.1
			c-1.4,2.4-2.8,5.1-4.4,8.2c-1.6,3-3,6-4.2,8.9c-2.2,5.2-4.1,10.6-5.9,16.3c-1.7,5.7-2.6,10.7-2.6,15.2c0,3.8,0.8,6.9,2.4,9.3
			c1.6,2.4,4.5,3.6,8.5,3.6c2.1,0,3.2-0.4,3.2-1.3c0-0.1,0-0.2-0.1-0.2c0,0-0.1-0.1-0.1-0.2c-0.5-1-0.8-2.3-0.8-4.1
			c0-2.3,0.3-4.9,1-7.9c0.7-3,1.4-5.8,2.3-8.4c0.9-2.6,1.5-4.5,2-5.6c1.9-4.4,4.4-8.7,7.5-13c3.1-4.3,6.3-8.3,9.7-12.1
			c3.4-3.8,6.5-7,9.3-9.8c2.8-2.8,4.9-4.8,6.3-6c-1.3,2.2-2.9,5.2-4.9,9c-1.9,3.8-3.9,8.1-6,12.9c-2.1,4.8-4,9.8-5.9,15
			c-1.8,5.2-3.3,10.3-4.5,15.3c-1.1,5-1.7,9.6-1.7,13.7c0,3.9,0.7,7.3,2,10.1c1.3,2.8,3.5,4.7,6.6,5.7c0.3,0.1,0.5,0.2,0.8,0.2
			c0.3,0,0.5,0.1,0.8,0.1c1.8,0,3.3-0.6,4.5-1.7c-0.4-0.7-0.7-1.5-0.9-2.5c-0.2-1-0.3-2-0.3-3.2c0-3.2,0.6-7.2,1.8-11.8
			c1.2-4.6,2.8-9.5,4.7-14.5c1.9-5.1,3.8-10,5.9-14.7c2-4.7,3.9-8.9,5.6-12.5C284.5,129.9,285.8,127.4,286.7,125.9z"/>
		<path class="st0" d="M412.6,152.8c-0.5,0-0.9,0.3-1.2,0.8c-0.6,1.2-1.7,3.4-3.4,6.6c-1.6,3.2-3.4,6.1-5.3,8.9
			c-1.5,2.2-3,4.1-4.5,5.7c-1.5,1.6-2.9,2.4-4.1,2.4c-1.1,0-1.7-0.9-1.7-2.8c0-1.1,0.2-2.1,0.5-3.3c1.2-4.2,3.1-8.9,5.7-14.2
			c2.6-5.3,5.1-10.2,7.6-14.7c2.3-4,3.4-7.4,3.4-10c0-1.5-0.4-2.7-1.1-3.8c-0.7-1-1.6-1.8-2.6-2.3c-1.9-0.9-3.7-1.3-5.3-1.3
			c-1.8,0-3.2,0.5-3.9,1.6c-0.4,0.7-1.2,1.2-2.4,1.6c-1.2,0.4-2.4,0.5-3.6,0.5c-1.1,0-2.2-0.2-3.2-0.5c-1-0.3-1.5-0.8-1.7-1.4
			c1.2-2.1,1.8-4,1.8-5.8c0-1.5-0.4-2.6-1.3-3.3c-0.8-0.7-1.7-1.1-2.7-1.1c-1.7,0-2.9,0.7-3.7,2.2c-0.8,1.4-1.2,2.9-1.2,4.4
			c0,2.3,0.6,4.1,1.7,5.5c-0.1,0.4-0.2,0.8-0.3,1.2c-0.1,0.5-0.2,0.8-0.3,1c-1.9,5.3-4.1,10.4-6.4,15.5c-1.2,2.5-2.2,4.8-3.2,6.9
			c-0.1,0.1-0.2,0.3-0.3,0.5c-0.4,0.6-0.8,1.6-1.4,3c-0.6,1.4-1.4,2.8-2.2,4.4c-1.5,2.8-3.3,5.6-5.3,8.4c-2.1,2.8-4.5,5.1-7.2,7
			c-2.7,1.8-5.9,2.8-9.5,2.8c-1.9,0-3.6-0.6-4.9-1.9c-1.3-1.3-2-3.4-2-6.3c0-0.4,0-0.9,0-1.2c0-0.4,0-0.8,0.1-1.3
			c0.3-2.3,1.1-5.2,2.4-8.8c5.9-0.4,11.2-2.2,15.9-5.3c4.7-3.1,8.3-7,10.8-11.7c1.8-3.4,2.8-6.3,2.8-8.6c0-3.1-1.4-5.3-4.1-6.6
			c-2.8-1.4-6.3-2-10.7-2c-3.4,0-6.7,0.9-9.7,2.8c-3.1,1.9-5.9,4.4-8.4,7.5c-2.5,3.1-4.8,6.5-6.7,10.1c-1.9,3.6-3.5,7.2-4.6,10.7
			c-0.5,1.6-1,3.1-1.3,4.5c-1.5,2.8-3.2,5.5-5.2,8.3c-2.1,2.8-4.5,5.1-7.2,7c-2.7,1.8-5.9,2.8-9.5,2.8c-1.9,0-3.6-0.6-4.9-1.9
			c-1.3-1.3-2-3.4-2-6.3c0-0.4,0-0.9,0-1.2c0-0.4,0-0.8,0.1-1.3c0.3-2.3,1.1-5.2,2.4-8.8c5.9-0.4,11.2-2.2,15.9-5.3
			c4.7-3.1,8.3-7,10.8-11.7c1.8-3.4,2.8-6.3,2.8-8.6c0-3.1-1.4-5.3-4.1-6.6c-2.8-1.4-6.3-2-10.7-2c-3.4,0-6.7,0.9-9.7,2.8
			c-3.1,1.9-5.9,4.4-8.4,7.5c-2.5,3.1-4.8,6.5-6.7,10.1c-1.9,3.6-3.5,7.2-4.6,10.7c-1.5,4.3-2.2,8.2-2.2,11.8
			c0,4.7,1.4,8.6,4.3,11.5c2.9,2.9,7.5,4.3,13.9,4.3c4.4,0,8.2-0.8,11.4-2.4c3.2-1.6,6.2-4.1,9-7.4c1.4-1.6,2.7-3.3,3.9-5.1
			c0.2,4.4,1.6,7.9,4.2,10.6c2.9,2.9,7.5,4.3,13.9,4.3c4.4,0,8.2-0.8,11.4-2.4c3.2-1.6,6.2-4.1,9-7.4c2.5-2.9,4.8-6.2,6.8-10
			c0.8-1.5,1.5-2.8,2.2-4.1c0.2-0.3,0.4-0.6,0.6-0.9c1.8-3.1,3.7-7,5.9-11.8c2.2-4.8,4.3-9.8,6.2-14.9c0.1-0.2,0.2-0.4,0.4-0.8
			c0.2-0.3,0.3-0.7,0.4-1.1c1.5,0.6,3.2,0.9,5.3,0.9c0.9,0,1.8-0.1,2.7-0.2c0.9-0.1,1.8-0.3,2.7-0.5c-1.4,2.6-3.1,5.6-5,8.9
			c-1.9,3.3-3.8,6.8-5.6,10.5c-1.8,3.6-3.3,7.2-4.5,10.8c-1.2,3.6-1.8,6.8-1.8,9.7c0,3.2,0.9,6.1,2.7,8.6c1.8,2.5,4.9,3.8,9.3,3.8
			c2.6,0,5-0.8,7.2-2.4c2.2-1.6,4.2-3.6,6.1-5.9c2.5-3.2,4.8-6.7,6.8-10.5c2-3.7,3.6-6.8,4.7-9.1c0.3-0.7,0.3-1.3-0.2-1.9
			C413.6,153,413.1,152.8,412.6,152.8z M342.6,153.4c0.6-1.4,1.5-3.5,2.8-6.2c1.2-2.7,2.6-5.5,4.2-8.4c1.6-2.9,3.1-5.1,4.5-6.8
			c1-1.2,1.9-1.8,2.8-1.8c1.1,0,1.6,0.9,1.6,2.6c0,0.4,0,0.7-0.1,1.1c0,0.4-0.1,0.7-0.2,1.2c-1.1,4.7-3.1,8.9-6.1,12.8
			c-3,3.9-6.5,6.5-10.5,8L342.6,153.4z M300.2,153.4c0.6-1.4,1.5-3.5,2.8-6.2c1.2-2.7,2.6-5.5,4.2-8.4c1.6-2.9,3.1-5.1,4.5-6.8
			c1-1.2,1.9-1.8,2.8-1.8c1.1,0,1.6,0.9,1.6,2.6c0,0.4,0,0.7-0.1,1.1c0,0.4-0.1,0.7-0.2,1.2c-1.1,4.7-3.1,8.9-6.1,12.8
			c-3,3.9-6.5,6.5-10.5,8L300.2,153.4z"/>
		<path class="st0" d="M513.7,115c0.4-1.4,0.6-2.9,0.6-4.3c0-1.8-0.4-3.4-1.1-4.9c-0.7-1.5-2-2.7-3.9-3.7c-1.1-0.7-2.2-1.3-3-1.6
			c-0.9-0.4-1.8-0.6-2.6-0.6c-1.1,0-2.3,0.5-3.6,1.4c-1.2,0.9-3.1,2.7-5.7,5.5c-2.6,2.8-5.5,6.1-8.7,9.9c-3.2,3.8-6.4,7.7-9.5,11.8
			c-3.2,4-5.9,7.8-8.3,11.2c-0.4,0.4-0.5,0.3-0.5-0.3c0-0.7,0.3-1.4,0.8-2.3c0.9-1.3,2-2.9,3.4-4.8c1.4-1.9,2.8-3.8,4.3-5.8
			c1.4-2,2.7-3.7,3.9-5.1c0.5-0.7,1.3-1.7,2.4-3c1.1-1.3,2.1-2.7,3.2-4.2c1.1-1.5,2-2.9,2.7-4.1c0.7-1.2,1-2.1,0.8-2.6
			c-0.4-1.3-1.1-2.9-2.3-4.6c-1.2-1.8-2.5-2.8-4-3.2c-1.9-0.3-4.4,0-7.4,1c-3,1-6.2,2.4-9.7,4.1c-3.5,1.8-6.9,3.5-10.4,5.3
			c-3.5,1.8-6.7,3.3-9.7,4.5c-3,1.2-5.4,1.8-7.2,1.8c-0.7,0-1.4-0.1-2-0.3c-0.6-0.2-0.9-0.6-0.9-1.3c0-0.2,0.1-0.4,0.2-0.7
			c0.1-0.3,0.2-0.6,0.3-0.9c0.3-0.4,0.4-0.8,0.4-1.1c0-0.6-0.4-0.9-1.1-0.9c-0.4,0-0.8,0.2-1.4,0.5c-0.6,0.3-1.1,0.8-1.6,1.5
			c-1.8,2.5-3.2,5.2-4.4,8c-1.2,2.8-1.8,5.2-1.8,7.2c0,2.1,0.7,3.4,2.2,3.9c0.7,0.3,1.4,0.4,2,0.5c0.7,0.1,1.3,0.1,1.9,0.1
			c2.5,0,5.2-0.7,7.8-2.2c2.7-1.4,5.3-3.2,7.9-5.4c2.6-2.1,5.1-4.4,7.4-6.6c2.4-2.3,4.6-4.3,6.6-6.1c2-1.8,3.8-2.9,5.3-3.4
			c1.1-0.4,1.6-0.3,1.6,0.5c0,0.8-0.5,2.1-1.5,3.8c-1,1.8-2.1,3.4-3.2,5c-1.1,1.6-1.8,2.6-2,3c-2.6,4.4-5.1,9-7.3,13.8
			c-2.2,4.8-4.2,9.4-5.9,14c-1.7,4.5-3.1,8.6-4.1,12.2c-1,3.6-1.6,6.6-1.9,8.8c-0.1,0.5-0.2,1-0.2,1.4c0,0.4-0.1,0.9-0.1,1.3
			c0,3.5,1.1,6,3.2,7.6c2.1,1.5,5.4,2.3,9.7,2.3c0.9,0,1.3-0.1,1.3-0.4l-0.3-0.5c-1-1.1-1.4-2.7-1.4-4.7c0-4.5,0.9-9.1,2.8-13.9
			c1.8-4.8,4.3-9.5,7.2-14.3c3-4.7,6.3-9.3,9.8-13.6c3.6-4.3,7.1-8.3,10.7-12c3.6-3.6,6.7-6.7,9.5-9.3c-0.4,1.1-1,2.7-1.8,4.8
			c-0.9,2.2-1.9,4.5-3.2,7.2c-1.1,2.4-2.4,5.2-3.9,8.6c-1.6,3.3-3.1,6.9-4.7,10.8c-1.5,3.9-2.8,7.7-3.8,11.6
			c-1,3.9-1.5,7.5-1.5,10.9c0,2.3,0.4,4.5,1.2,6.6c0.8,2.2,2.1,3.9,3.7,5.3c1.6,1.4,3.6,2.1,6,2.1c1,0,1.9-0.1,2.8-0.4
			c0.9-0.3,1.5-0.7,1.8-1.2c-1-1.2-1.4-3.6-1.4-7.1c0-2.1,0.2-4.5,0.7-7c0.5-2.6,1.2-5.2,2-8c2-5.6,4.7-11.6,8-17.9
			c3.3-6.3,7.1-13.6,11.2-21.7C512.8,117.9,513.3,116.5,513.7,115z"/>
		<path class="st0" d="M920,161.4c1.2-4.1,2-9.3,2.6-15.4c0.6-6.1,0.9-12.3,1.1-18.4c0.2-1.8,0.8-2.9,1.8-3.4
			c1.1-0.5,1.8-0.7,2.1-0.7c0.5,0,0.7-0.2,0.7-0.7c-0.1-0.4-0.2-0.7-0.4-0.8c-0.5-0.1-1.3-0.2-2.4-0.3c-1.1-0.1-2.1-0.1-3-0.1
			c-0.4,0-0.7,0-1.1,0s-0.8,0-1.1,0.1c-2.9,0.3-5.6,1.5-8,3.6c-2.5,2.2-4.6,4.6-6.5,7.4c-1.9,2.8-3.5,5.3-4.9,7.6
			c-1.2,2.1-2.5,4.2-3.7,6.2c-1.2,2-2.4,4-3.4,6.1c-0.4-0.6-1.1-0.9-2.1-0.9c-1.6,0-2.9,0.7-3.8,2.2c-1,1.5-1.7,3.3-2.1,5.4
			c-0.4,1.7-0.6,3.4-0.6,5c-0.8,1.2-1.7,2.4-2.5,3.4c-3.7,4.7-7.8,8.5-12.4,11.3c2-5.5,3.8-11,5.3-16.3c1.5-5.4,3.4-10.6,5.7-15.7
			c1.2-2.8,2.5-5.5,3.9-8.1c1.4-2.6,2.8-4.7,4.1-6.4s2.5-2.6,3.4-2.6c0.4,0,0.9-0.1,1.3-0.3c0.4-0.2,0.6-0.5,0.6-0.9
			c0-0.7-0.8-1.3-2.4-1.8c-0.5-0.2-1.4-0.4-2.7-0.6c-1.3-0.2-2.7-0.3-4.1-0.3c-0.5,0-1.1,0-1.6,0.1c-0.6,0-1.1,0.1-1.6,0.2
			c-2.2,0.4-4.3,1.4-6.4,3.2c-2.1,1.8-4.2,4.6-6.2,8.4c-1.1,2.4-2.2,4.8-3.3,7.3c-1.1,2.5-2.1,4.8-3,6.8c-1.3,2.5-2.9,5.4-4.6,8.7
			c-1.8,3.2-3.5,6-5.3,8.3c-1.1,1.2-1.9,1.8-2.6,1.8c-0.6,0-0.9-0.6-0.9-1.7c0-1.8,0.7-4.6,2-8.4c1.3-3.9,2.9-7.9,4.9-12.2
			c1.4-3.1,2.9-6.1,4.5-9c1.6-2.9,3.2-5.4,4.6-7.4c1.4-2,2.5-3.1,3.1-3.3c-1.4-0.3-2.9-0.5-4.3-0.7c-1.5-0.2-3-0.3-4.5-0.3
			c-2.6,0-5.2,0.5-7.6,1.6c-2.4,1.1-4.4,3.1-6,6.2c-1.1,2-2.4,5-4.1,9.1c-1.2,2.7-2.3,5.6-3.3,8.4c-0.2,0.2-0.5,0.4-0.7,0.8
			c-0.4,0.6-0.8,1.6-1.4,3c-0.6,1.4-1.4,2.8-2.2,4.4c-1.5,2.8-3.3,5.6-5.3,8.4c-2.1,2.8-4.5,5.1-7.2,7c-2.7,1.8-5.9,2.8-9.5,2.8
			c-1.9,0-3.6-0.6-4.9-1.9c-1.3-1.3-2-3.4-2-6.3c0-0.4,0-0.9,0-1.2c0-0.4,0-0.8,0.1-1.3c0.3-2.3,1.1-5.2,2.4-8.8
			c5.9-0.4,11.2-2.2,15.9-5.3c4.7-3.1,8.3-7,10.8-11.7c1.8-3.4,2.8-6.3,2.8-8.6c0-3.1-1.4-5.3-4.1-6.6c-2.8-1.4-6.3-2-10.7-2
			c-3.4,0-6.7,0.9-9.7,2.8c-3.1,1.9-5.9,4.4-8.4,7.5c-2.5,3.1-4.8,6.5-6.7,10.1c-1.9,3.6-3.5,7.2-4.6,10.7c-0.3,0.8-0.5,1.7-0.8,2.5
			c-0.2,0.3-0.3,0.6-0.5,0.9c-1.6,3.2-3.4,6.1-5.3,8.9c-1.4,2.2-2.9,4.1-4.5,5.7c-1.6,1.6-3,2.4-4.2,2.4c-1.1,0-1.6-1-1.6-2.9
			c0-2.7,1-7,3-12.7c2-5.7,4.9-12.2,8.7-19.4c1.8-3.5,2.6-6.5,2.6-9c0-3-1-5-2.9-6.2c-1.9-1.1-3.8-1.7-5.7-1.7
			c-1.6,0-2.7,0.3-3.4,0.8c-0.7,1.1-2.1,2.9-4.3,5.4c-2.2,2.5-4.5,5.4-7.1,8.8c-2.6,3.4-5,7-7.2,10.9c-0.2-0.1,0.1-0.7,0.7-2
			c0.7-1.2,1.3-2.4,1.9-3.6c0.6-1.1,1.2-2.2,1.8-3.2c0.6-1,0.9-1.8,1.1-2.4c0.4-1.3,0.7-2.5,0.7-3.4c0-1.5-0.4-2.9-1.1-4.1
			c-0.7-1.2-1.7-2.3-2.9-3.2c-1.1-0.9-2.4-1.5-3.9-1.9c-1.4-0.4-2.9-0.6-4.3-0.6c-1.4,0-2.1,0.5-2.1,1.6c0,0.2,0.1,0.4,0.3,0.8
			c0.2,0.4,0.1,1.3-0.3,2.6c-0.4,1.3-0.9,2.7-1.5,4.3c-0.7,1.6-1.3,3.2-1.9,4.6c-0.6,1.4-1.1,2.5-1.3,3.2c-1.2,2.9-2.5,6.1-4.1,9.5
			c-0.1,0.1-0.1,0.2-0.2,0.3c-0.6,1.2-1.7,3.4-3.4,6.6c-1.6,3.2-3.4,6.1-5.3,8.9c-1.5,2.2-3,4.1-4.5,5.7c-1.5,1.6-2.9,2.4-4.1,2.4
			c-1.1,0-1.7-0.9-1.7-2.8c0-1.1,0.2-2.1,0.5-3.3c1.2-4.2,3.1-8.9,5.7-14.2c2.6-5.3,5.1-10.2,7.6-14.7c2.3-4,3.4-7.4,3.4-10
			c0-1.5-0.4-2.7-1.1-3.8c-0.7-1-1.6-1.8-2.6-2.3c-1.9-0.9-3.7-1.3-5.3-1.3c-1.8,0-3.2,0.5-3.9,1.6c-0.4,0.7-1.2,1.2-2.4,1.6
			c-1.2,0.4-2.4,0.5-3.6,0.5c-1.1,0-2.2-0.2-3.2-0.5c-1-0.3-1.5-0.8-1.7-1.4c1.2-2.1,1.8-4,1.8-5.8c0-1.5-0.4-2.6-1.3-3.3
			c-0.8-0.7-1.7-1.1-2.7-1.1c-1.7,0-2.9,0.7-3.7,2.2c-0.8,1.4-1.2,2.9-1.2,4.4c0,2.3,0.6,4.1,1.7,5.5c-0.1,0.4-0.2,0.8-0.3,1.2
			c-0.1,0.5-0.2,0.8-0.3,1c-1.9,5.3-4.1,10.4-6.4,15.5c-1.2,2.5-2.2,4.8-3.2,6.9c-0.1,0.1-0.2,0.3-0.3,0.5c-0.4,0.6-0.8,1.6-1.4,3
			c-0.6,1.4-1.4,2.8-2.2,4.4c-1.5,2.8-3.3,5.6-5.3,8.4c-2.1,2.8-4.5,5.1-7.2,7c-2.7,1.8-5.9,2.8-9.5,2.8c-1.9,0-3.6-0.6-4.9-1.9
			c-1.3-1.3-2-3.4-2-6.3c0-0.4,0-0.9,0-1.2c0-0.4,0-0.8,0.1-1.3c0.3-2.3,1.1-5.2,2.4-8.8c5.9-0.4,11.2-2.2,15.9-5.3
			c4.7-3.1,8.3-7,10.8-11.7c1.8-3.4,2.8-6.3,2.8-8.6c0-3.1-1.4-5.3-4.1-6.6c-2.8-1.4-6.3-2-10.7-2c-3.4,0-6.7,0.9-9.7,2.8
			c-3.1,1.9-5.9,4.4-8.4,7.5c-2.5,3.1-4.8,6.5-6.7,10.1c-1.6,3.1-3,6.1-4,9.1c-0.7,1.4-1.6,3.2-2.7,5.4c-1.4,2.9-3.2,5.7-5.2,8.6
			c-1.5,2.2-3,4.1-4.5,5.7c-1.5,1.6-2.9,2.4-4.1,2.4c-0.8,0-1.4-0.4-1.7-1.3c-0.4-0.8-0.5-2-0.5-3.4c0-2.4,0.4-5.2,1.2-8.4
			c0.8-3.2,1.6-6,2.5-8.3c2.1-5.4,4.6-10.7,7.4-15.9c2.8-5.3,5.7-10,8.7-14.3c3-4.3,5.7-7.6,8-10c0.5-0.5,1.1-1,1.7-1.4
			c0.6-0.4,1.1-0.6,1.4-0.6c0.9,0,1.3-0.3,1.3-0.8c0-0.8-1-1.6-3-2.4c-1.1-0.4-2.9-0.7-5.1-0.7c-1.4,0-2.9,0.1-4.3,0.4
			c-2.2,0.4-4.4,1.4-6.5,3.2c-2.2,1.8-4.2,3.9-6.1,6.3c-1.9,2.5-3.7,5-5.3,7.5c-1.2-0.3-2.6-0.7-4.2-1c-1.6-0.3-2.9-0.5-3.8-0.6
			c-4.7-0.3-9.3,1-13.8,3.9c-4.5,2.9-8.9,8.3-13.2,16.4c-1.6,3.1-2.9,6-4.1,8.9c-0.6,1.3-1.6,3.1-2.8,5.4c-1.6,3.2-3.4,6.1-5.3,8.9
			c-1.5,2.2-3,4.1-4.5,5.7c-1.5,1.6-2.9,2.4-4.1,2.4c-1.1,0-1.7-0.9-1.7-2.8c0-1.1,0.2-2.1,0.5-3.3c1.2-4.2,3.1-8.9,5.7-14.2
			c2.6-5.3,5.1-10.2,7.6-14.7c2.3-4,3.4-7.4,3.4-10c0-1.5-0.4-2.7-1.1-3.8c-0.7-1-1.6-1.8-2.6-2.3c-1.9-0.9-3.7-1.3-5.3-1.3
			c-1.8,0-3.2,0.5-3.9,1.6c-0.4,0.7-1.2,1.2-2.4,1.6c-1.2,0.4-2.4,0.5-3.6,0.5c-1.1,0-2.2-0.2-3.2-0.5c-1-0.3-1.5-0.8-1.7-1.4
			c1.2-2.1,1.8-4,1.8-5.8c0-1.5-0.4-2.6-1.3-3.3c-0.8-0.7-1.7-1.1-2.7-1.1c-1.7,0-2.9,0.7-3.7,2.2c-0.8,1.4-1.2,2.9-1.2,4.4
			c0,2.3,0.6,4.1,1.7,5.5c-0.1,0.4-0.2,0.8-0.3,1.2c-0.1,0.5-0.2,0.8-0.3,1c-1.9,5.3-4.1,10.4-6.4,15.5c-1.1,2.5-2.2,4.7-3.2,6.8
			c-0.1,0.1-0.2,0.3-0.3,0.5c-0.9,1.9-2.2,4.4-3.8,7.5c-1.7,3.1-3.3,5.7-4.9,7.9c-1.5,1.9-2.9,2.9-4.3,2.9c-1.1,0-1.8-0.5-2.2-1.4
			c-0.4-1-0.6-1.9-0.6-2.9c0-0.7,0.1-1.4,0.3-2.1c3.2-5.2,5.7-10.5,7.5-15.9c1.8-5.4,2.8-9.9,2.8-13.3c0-3.2-0.7-5.6-2.2-7.2
			c-1.5-1.5-3.4-2.5-5.8-3c-2.4-0.4-4.9-0.7-7.5-0.7c-4,0-7.9,0.9-11.5,2.8c-3.6,1.9-6.9,4.4-9.9,7.6c-3,3.2-5.6,6.7-7.8,10.5
			c-2.2,3.9-3.9,7.8-5.1,11.9s-1.8,8-1.8,11.6c0,5.3,1.6,8.8,4.7,10.7c3.2,1.8,7.5,2.8,13.2,2.8c3.6,0,7.1-1.2,10.5-3.7
			c3.4-2.5,6.5-5.6,9.3-9.3c0.5,1.6,1.2,2.8,2.1,3.6c0.9,0.8,2.2,1.3,3.9,1.3c1.5,0,2.9-0.5,4.2-1.6c1.8-1.4,3.4-3.3,4.9-5.7
			c1.5-2.4,2.8-4.7,3.9-7c0.1-0.2,0.2-0.4,0.3-0.5c0.2-0.3,0.3-0.5,0.5-0.8c1.8-3.1,3.7-7,5.9-11.8c2.2-4.8,4.3-9.8,6.2-14.9
			c0.1-0.2,0.2-0.4,0.4-0.8c0.2-0.3,0.3-0.7,0.4-1.1c1.5,0.6,3.2,0.9,5.3,0.9c0.9,0,1.8-0.1,2.7-0.2c0.9-0.1,1.8-0.3,2.7-0.5
			c-1.4,2.6-3.1,5.6-5,8.9c-1.9,3.3-3.8,6.8-5.6,10.5c-1.8,3.6-3.3,7.2-4.5,10.8c-1.2,3.6-1.8,6.8-1.8,9.7c0,3.2,0.9,6.1,2.7,8.6
			c1.8,2.5,4.9,3.8,9.3,3.8c2.6,0,5-0.8,7.2-2.4c2.2-1.6,4.2-3.6,6.1-5.9c1.8-2.3,3.4-4.7,5-7.2c0,0.5,0,0.9,0,1.4
			c0,3.5,0.7,6.6,2.1,9.3c1.4,2.7,3.6,4.1,6.7,4.4c1.4,0.1,3,0,4.7-0.4c1.8-0.3,3.7-1.8,5.9-4.2c2.4-2.6,4.2-5.2,5.5-7.8l1.3-2.5
			c-0.3,3.1,0.2,5.9,1.2,8.6c1.1,2.6,2.7,4.5,4.9,5.5c1.4,0.7,3,1.1,4.9,1.1c2.7,0,5.3-0.8,7.8-2.4c2.5-1.6,4.5-3.4,6.1-5.5
			c1.9-2.4,3.6-5,5.1-7.8c0,0.3,0,0.6,0,0.9c0,4.7,1.4,8.6,4.3,11.5c2.9,2.9,7.5,4.3,13.9,4.3c4.4,0,8.2-0.8,11.4-2.4
			c3.2-1.6,6.2-4.1,9-7.4c2.5-2.9,4.8-6.2,6.8-10c0.8-1.5,1.5-2.8,2.2-4.1c0.2-0.3,0.4-0.6,0.6-0.9c1.8-3.1,3.7-7,5.9-11.8
			c2.2-4.8,4.3-9.8,6.2-14.9c0.1-0.2,0.2-0.4,0.4-0.8c0.2-0.3,0.3-0.7,0.4-1.1c1.5,0.6,3.2,0.9,5.3,0.9c0.9,0,1.8-0.1,2.7-0.2
			c0.9-0.1,1.8-0.3,2.7-0.5c-1.4,2.6-3.1,5.6-5,8.9c-1.9,3.3-3.8,6.8-5.6,10.5c-1.8,3.6-3.3,7.2-4.5,10.8c-1.2,3.6-1.8,6.8-1.8,9.7
			c0,3.2,0.9,6.1,2.7,8.6c1.8,2.5,4.9,3.8,9.3,3.8c2.6,0,5-0.8,7.2-2.4c2.2-1.6,4.2-3.6,6.1-5.9c0.9-1.1,1.7-2.2,2.5-3.4
			c0,0.4-0.1,0.8-0.1,1.2c0,3,0.6,5.1,1.9,6.4c1.3,1.3,2.9,2.1,4.8,2.5c1.9,0.4,3.9,0.8,5.9,1.1c1,0.2,1.4,0,1.4-0.4
			c0-0.2-0.1-0.4-0.4-0.7c-0.7-0.7-1.1-1.8-1.1-3.4c0-2.3,0.7-5,2.2-8.2c1.4-3.2,3.3-6.5,5.5-10c2.2-3.5,4.4-6.8,6.6-9.9
			c2.2-3.1,4.2-5.7,5.9-7.8c1.7-2.1,2.6-3.4,2.9-3.8c-0.6,1.1-1.5,3.2-2.7,6.1c-1.2,2.9-2.3,6-3.4,9.1c-0.3,0.7-0.7,2-1.3,3.8
			c-0.6,1.8-1.2,3.9-1.7,6.3s-0.8,4.7-0.8,7.1c0,3.2,0.8,6.1,2.4,8.6c1.6,2.5,4.6,3.7,9.1,3.7c2.5,0,4.8-0.8,6.7-2.3
			c1.9-1.5,3.9-3.6,5.8-6.3c1.6-2,3-4.2,4.4-6.4c0,0,0,0,0,0.1c0,4.7,1.4,8.6,4.3,11.5c2.9,2.9,7.5,4.3,13.9,4.3
			c4.4,0,8.2-0.8,11.4-2.4c3.2-1.6,6.2-4.1,9-7.4c1.6-1.8,3.1-3.8,4.5-6c-0.3,1.5-0.4,3.1-0.4,4.5c0,2.3,0.5,4.3,1.5,6.1
			c1,1.8,2.9,2.9,5.6,3.4c3.1,0.4,5.9-0.6,8.6-3.2c2.7-2.5,5.2-5.6,7.6-9.1l6.1-10.8c-1.4,4.3-2.8,8.5-4.1,12.6
			c-1.4,4.1-2.9,8.4-4.5,12.9c-2.4,0.6-5.1,1.4-8.1,2.2c-3,0.9-5.9,2-8.8,3.2c-2.8,1.3-5.1,2.8-6.9,4.5c-1.8,1.7-2.7,3.8-2.7,6.1
			c0,2.6,1.2,4.6,3.7,5.8c2.5,1.2,5.8,1.8,10,1.7c4.6-0.1,8.5-1.3,11.8-3.6c3.3-2.3,6.2-5.3,8.7-8.9c2.5-3.7,4.6-7.7,6.3-12
			c1.6-0.7,3-1.5,4.2-2.4c3.4-2.2,6.8-5,10-8.6c1-1.1,2-2.2,2.9-3.4c0.7,3.6,2.3,6.5,4.9,8.8c3.5,3.2,7.7,5.5,13.6,4.7
			C913.1,181.9,918,168.4,920,161.4z M810.8,153.4c0.6-1.4,1.5-3.5,2.8-6.2c1.2-2.7,2.6-5.5,4.2-8.4c1.6-2.9,3.1-5.1,4.5-6.8
			c1-1.2,1.9-1.8,2.8-1.8c1.1,0,1.6,0.9,1.6,2.6c0,0.4,0,0.7-0.1,1.1c0,0.4-0.1,0.7-0.2,1.2c-1.1,4.7-3.1,8.9-6.1,12.8
			c-3,3.9-6.5,6.5-10.5,8L810.8,153.4z M674.2,153.4c0.6-1.4,1.5-3.5,2.8-6.2c1.2-2.7,2.6-5.5,4.2-8.4c1.6-2.9,3.1-5.1,4.5-6.8
			c1-1.2,1.9-1.8,2.8-1.8c1.1,0,1.6,0.9,1.6,2.6c0,0.4,0,0.7-0.1,1.1c0,0.4-0.1,0.7-0.2,1.2c-1.1,4.7-3.1,8.9-6.1,12.8
			c-3,3.9-6.5,6.5-10.5,8L674.2,153.4z M540.5,136.4c-0.6,2.2-1.4,4.5-2.2,6.8c-0.9,2.3-1.7,4.4-2.5,6.3c-0.8,1.9-1.4,3.2-1.7,3.9
			c-1.8,4.1-3.7,8.2-5.7,12.2c-1.9,4-3.7,7.3-5.4,9.8c-1.7,2.5-3,3.8-3.9,3.8c-0.9,0-1.3-0.8-1.3-2.5c0-1.7,0.4-3.9,1.1-6.6
			c0.7-2.8,1.7-5.7,2.8-8.8c1.1-3.1,2.2-5.8,3.3-8.3c1.1-2.5,2.3-5.1,3.7-7.9c1.4-2.8,2.8-5.4,4.3-7.9c1.5-2.5,2.9-4.5,4.1-6
			c1.2-1.5,2.2-2.3,3-2.3c0.9,0,1.3,0.7,1.3,2.2C541.4,132.5,541.1,134.2,540.5,136.4z M636.9,131.4c-0.7,1.8-1.6,4.1-2.8,6.8
			c-1.1,2.7-2.3,5.6-3.6,8.6c-1.3,3-2.5,5.8-3.7,8.6c-1.2,2.7-2.2,5-3,6.9c-0.8,1.9-1.4,3.1-1.6,3.6c-1.3,2.7-2.8,5.2-4.5,7.4
			c-1.7,2.2-3,3.4-4,3.4c-0.8,0-1.2-1-1.2-3c0-3.7,0.7-7.7,2.1-12.2c1.4-4.4,3.2-8.8,5.3-13c2.1-4.3,4.2-8,6.3-11.1
			c2.1-3.2,3.9-5.3,5.3-6.4c0.5-0.4,1.2-0.8,1.9-1.1c0.7-0.3,1.4-0.4,2-0.4c1.1,0,1.7,0.4,1.7,1.2C637,131,637,131.3,636.9,131.4z
			 M845.5,199c-2.8,2.8-5.5,4.2-8,4.2c-1.7,0-2.8-0.3-3.4-0.9c-0.6-0.6-0.9-1.3-0.9-2.2c0-1.8,1.1-3.5,3.2-4.9
			c2.1-1.4,4.7-2.6,7.7-3.7c3-1.1,5.8-1.9,8.4-2.5C850.6,192.9,848.3,196.1,845.5,199z M903.8,161.2c-1.1,3.8-2.2,7.1-3.6,10
			c-0.6,1.3-1.4,2.3-2.4,2.9c-1,0.6-1.9,0.9-2.9,0.9c-1.1,0-2.3-0.4-3.4-1.3c-1.1-0.8-1.9-2-2.3-3.4c-0.1-0.4-0.2-0.9-0.2-1.4
			c0-0.5-0.1-1-0.1-1.3v-1.4c1.2-1.7,2.7-3.3,4.3-4.9c1.7-1.6,2.5-3.4,2.4-5.4c0.9-1.8,2.2-4.1,3.9-7c1.7-2.9,3.5-5.8,5.4-8.7
			c1.9-2.9,3.5-5.1,4.8-6.7c-0.3,1.3-0.7,3.4-1.3,6.4c-0.6,2.9-1.2,6.3-2,10C905.8,153.7,904.9,157.4,903.8,161.2z"/>
	</g>
</g>
</svg>
