<svg width="123" height="40" viewBox="0 0 123 40" fill="none" xmlns="http://www.w3.org/2000/svg">
<g style="mix-blend-mode:multiply">
<path d="M18.6509 37.2199C25.4049 37.2199 30.88 31.7568 30.88 25.0177C30.88 18.2786 25.4049 12.8155 18.6509 12.8155C11.897 12.8155 6.42188 18.2786 6.42188 25.0177C6.42188 31.7568 11.897 37.2199 18.6509 37.2199Z" fill="#E45F75"/>
</g>
<g style="mix-blend-mode:multiply">
<g style="mix-blend-mode:multiply">
<path d="M25.0045 24.4044C31.7584 24.4044 37.2335 18.9413 37.2335 12.2022C37.2335 5.46311 31.7584 0 25.0045 0C18.2505 0 12.7754 5.46311 12.7754 12.2022C12.7754 18.9413 18.2505 24.4044 25.0045 24.4044Z" fill="#FDC400"/>
</g>
</g>
<g style="mix-blend-mode:multiply">
<path d="M12.2291 24.4044C18.983 24.4044 24.4581 18.9413 24.4581 12.2022C24.4581 5.46311 18.983 0 12.2291 0C5.47516 0 0 5.46311 0 12.2022C0 18.9413 5.47516 24.4044 12.2291 24.4044Z" fill="#64B6E7"/>
</g>
<path d="M18.6228 22.6047C21.5878 20.7983 23.7057 17.7716 24.2796 14.2404C24.3274 13.9473 24.3615 13.6542 24.3889 13.3542C24.3889 13.3133 24.3889 13.2656 24.3889 13.2179C24.3889 11.6296 23.0703 10.3344 21.4512 10.3344C20.0985 10.3344 18.9575 11.2342 18.6159 12.4544C18.2743 11.2342 17.1334 10.3344 15.7807 10.3344C14.1616 10.3344 12.843 11.6227 12.843 13.2179C12.843 13.252 12.843 13.2929 12.843 13.327C12.8499 13.3679 12.8499 13.4088 12.8567 13.4428C12.8499 13.4019 12.8499 13.361 12.843 13.327C12.8157 12.9793 12.8499 13.5996 12.9523 14.2336C13.5399 17.7852 15.6646 20.7983 18.6228 22.6047C18.6228 22.6115 18.6228 22.6115 18.6228 22.6047Z" fill="white"/>
<path fill-rule="evenodd" clip-rule="evenodd" d="M30.7129 22.9963C29.0088 23.8953 27.0664 24.4044 25.0049 24.4044C18.9414 24.4044 13.9082 20.0009 12.9424 14.2239C14.6465 13.3246 16.5898 12.8155 18.6514 12.8155C24.7148 12.8155 29.748 17.2192 30.7129 22.9963Z" fill="#E74011"/>
<path fill-rule="evenodd" clip-rule="evenodd" d="M24.2969 14.1906C23.3457 19.9839 18.3047 24.4044 12.2295 24.4044C10.1934 24.4044 8.27246 23.9077 6.58301 23.029C7.53516 17.2358 12.5762 12.8155 18.6514 12.8155C20.6875 12.8155 22.6084 13.3121 24.2969 14.1906Z" fill="#6A476A"/>
<path fill-rule="evenodd" clip-rule="evenodd" d="M18.6172 1.79492C15.1133 3.9408 12.7754 7.79913 12.7754 12.2021C12.7754 16.6053 15.1133 20.4636 18.6172 22.6095C22.1211 20.4636 24.458 16.6053 24.458 12.2021C24.458 7.79913 22.1211 3.9408 18.6172 1.79492Z" fill="#75912B"/>
<path d="M18.6228 22.6047C21.5878 20.7983 23.7057 17.7716 24.2796 14.2404C24.3274 13.9473 24.3615 13.6542 24.3889 13.3542C24.3889 13.3133 24.3889 13.2656 24.3889 13.2179C24.3889 11.6296 23.0703 10.3344 21.4512 10.3344C20.0985 10.3344 18.9575 11.2342 18.6159 12.4544C18.2743 11.2342 17.1334 10.3344 15.7807 10.3344C14.1616 10.3344 12.843 11.6227 12.843 13.2179C12.843 13.252 12.843 13.2929 12.843 13.327C12.8499 13.3679 12.8499 13.4088 12.8567 13.4428C12.8499 13.4019 12.8499 13.361 12.843 13.327C12.8157 12.9793 12.8499 13.5996 12.9523 14.2336C13.5399 17.7852 15.6646 20.7983 18.6228 22.6047C18.6228 22.6115 18.6228 22.6115 18.6228 22.6047Z" fill="white"/>
<path fill-rule="evenodd" clip-rule="evenodd" d="M121.672 37.2565C122.039 37.2565 122.222 37.0736 122.222 36.7078V31.7544C122.222 29.9559 121.077 29.0566 119.549 29.0566C118.022 29.0566 116.876 29.9559 116.876 31.7544V36.7078C116.876 37.0736 117.059 37.2565 117.426 37.2565H117.976C118.343 37.2565 118.526 37.0736 118.526 36.7078V31.8611C118.526 30.8856 118.984 30.5959 119.549 30.5959C120.115 30.5959 120.573 30.8856 120.573 31.8611V36.7078C120.573 37.0736 120.756 37.2565 121.123 37.2565H121.672ZM111.408 31.8611C111.408 30.8856 111.866 30.5959 112.431 30.5959C112.997 30.5959 113.455 30.8856 113.455 31.8611V32.364H111.408V31.8611ZM113.852 34.5588C113.547 34.5588 113.379 34.7264 113.379 35.0312C113.379 35.5495 113.012 35.8848 112.431 35.8848C111.866 35.8848 111.408 35.5952 111.408 34.6197V33.5986H114.555C114.921 33.5986 115.104 33.4156 115.104 33.0499V31.7544C115.104 29.9558 113.959 29.0566 112.431 29.0566C110.904 29.0566 109.758 29.9558 109.758 31.7544V34.7264C109.758 36.5249 110.904 37.4242 112.431 37.4242C113.989 37.4242 115.028 36.4792 115.028 35.1075C115.028 34.7416 114.845 34.5588 114.478 34.5588H113.852ZM106.322 33.8272C106.322 34.8026 105.863 35.0922 105.298 35.0922C104.733 35.0922 104.275 34.8026 104.275 33.8272V31.861C104.275 30.8855 104.733 30.5959 105.298 30.5959C105.863 30.5959 106.322 30.8855 106.322 31.861V33.8272ZM106.322 37.348C106.322 38.3235 105.863 38.5368 105.298 38.5368C104.641 38.5368 104.351 38.171 104.351 37.729C104.351 37.4241 104.183 37.2565 103.878 37.2565H103.251C102.885 37.2565 102.702 37.4394 102.702 37.8052C102.702 39.0093 103.664 40 105.298 40C106.826 40 107.971 39.177 107.971 37.3784V31.7543C107.971 29.9558 106.826 29.0566 105.298 29.0566C103.771 29.0566 102.625 29.9558 102.625 31.7543V34.1168C102.625 35.8238 103.557 36.6316 104.81 36.6316C105.436 36.6316 105.955 36.4335 106.322 35.9915V37.348ZM100.303 37.2565C100.67 37.2565 100.853 37.0736 100.853 36.7078V31.7544C100.853 29.9559 99.7078 29.0566 98.1803 29.0566C96.6528 29.0566 95.5071 29.9559 95.5071 31.7544V36.7078C95.5071 37.0736 95.6904 37.2565 96.057 37.2565H96.6069C96.9735 37.2565 97.1568 37.0736 97.1568 36.7078V31.8611C97.1568 30.8856 97.6151 30.5959 98.1803 30.5959C98.7454 30.5959 99.2037 30.8856 99.2037 31.8611V36.7078C99.2037 37.0736 99.387 37.2565 99.7535 37.2565H100.303ZM88.7863 29.2242C88.4196 29.2242 88.2363 29.4072 88.2363 29.7729V34.7264C88.2363 36.5249 89.382 37.4242 90.9095 37.4242C92.437 37.4242 93.5826 36.5249 93.5826 34.7264V29.7729C93.5826 29.4072 93.3993 29.2242 93.0328 29.2242H92.4828C92.1162 29.2242 91.9329 29.4072 91.9329 29.7729V34.6197C91.9329 35.5952 91.4747 35.8848 90.9095 35.8848C90.3443 35.8848 89.8861 35.5952 89.8861 34.6197V29.7729C89.8861 29.4072 89.7028 29.2242 89.3361 29.2242H88.7863ZM85.762 37.2565C86.1286 37.2565 86.3119 37.0736 86.3119 36.7078V31.7544C86.3119 29.9559 85.1662 29.0566 83.6388 29.0566C82.1113 29.0566 80.9657 29.9559 80.9657 31.7544V36.7078C80.9657 37.0736 81.1489 37.2565 81.5155 37.2565H82.0654C82.432 37.2565 82.6153 37.0736 82.6153 36.7078V31.8611C82.6153 30.8856 83.0736 30.5959 83.6388 30.5959C84.2039 30.5959 84.6621 30.8856 84.6621 31.8611V36.7078C84.6621 37.0736 84.8454 37.2565 85.2121 37.2565H85.762ZM75.3446 31.8611C75.3446 30.8856 75.8029 30.5959 76.3681 30.5959C76.9333 30.5959 77.3915 30.8856 77.3915 31.8611V36.7079C77.3915 37.0736 77.5748 37.2565 77.9414 37.2565H78.4913C78.858 37.2565 79.0412 37.0736 79.0412 36.7079V31.5714C79.0412 29.8644 78.1094 29.0566 76.8569 29.0566C76.2306 29.0566 75.7113 29.2547 75.3446 29.6967V26.9837C75.3446 26.6179 75.1613 26.435 74.7947 26.435H74.2448C73.8783 26.435 73.6949 26.6179 73.6949 26.9837V36.7079C73.6949 37.0736 73.8783 37.2565 74.2448 37.2565H74.7947C75.1613 37.2565 75.3446 37.0736 75.3446 36.7079V31.8611ZM69.1432 30.5959C69.7084 30.5959 70.1666 30.8855 70.1666 31.8611V34.6197C70.1666 35.5952 69.7084 35.8848 69.1432 35.8848C68.578 35.8848 68.1197 35.5952 68.1197 34.6197V31.8611C68.1197 30.8855 68.578 30.5959 69.1432 30.5959ZM69.1432 37.4242C70.6707 37.4242 71.8163 36.5554 71.8163 34.7264V31.7544C71.8163 29.9559 70.6707 29.0566 69.1432 29.0566C67.6157 29.0566 66.4701 29.9559 66.4701 31.7544V34.7264C66.4701 36.5554 67.6157 37.4242 69.1432 37.4242ZM55.8848 35.0008C55.8848 36.6164 56.9082 37.4242 58.2829 37.4242C59.1842 37.4242 59.9021 37.0279 60.284 36.2811C60.6659 37.0279 61.3685 37.4242 62.285 37.4242C63.6598 37.4242 64.6832 36.6164 64.6832 35.0008V29.7729C64.6832 29.4072 64.4999 29.2242 64.1333 29.2242H63.5834C63.2168 29.2242 63.0335 29.4072 63.0335 29.7729V34.696C63.0335 35.6104 62.6058 35.8848 62.0712 35.8848C61.5365 35.8848 61.1088 35.6104 61.1088 34.696V29.7729C61.1088 29.4072 60.9255 29.2242 60.5589 29.2242H60.009C59.6424 29.2242 59.4591 29.4072 59.4591 29.7729V34.696C59.4591 35.6104 59.0314 35.8848 58.4968 35.8848C57.9622 35.8848 57.5345 35.6104 57.5345 34.696V29.7729C57.5345 29.4072 57.3511 29.2242 56.9846 29.2242H56.4346C56.068 29.2242 55.8848 29.4072 55.8848 29.7729V35.0008ZM88.129 23.6308C88.4956 23.6308 88.6789 23.4479 88.6789 23.082V18.1286C88.6789 16.3301 87.5333 15.4308 86.0057 15.4308C84.4783 15.4308 83.3326 16.3301 83.3326 18.1286V23.082C83.3326 23.4479 83.5159 23.6308 83.8825 23.6308H84.4324C84.799 23.6308 84.9823 23.4479 84.9823 23.082V18.2352C84.9823 17.2598 85.4405 16.9702 86.0057 16.9702C86.5709 16.9702 87.0292 17.2598 87.0292 18.2352V23.082C87.0292 23.4479 87.2125 23.6308 87.579 23.6308H88.129ZM77.8645 18.2352C77.8645 17.2598 78.3228 16.9702 78.888 16.9702C79.4531 16.9702 79.9113 17.2598 79.9113 18.2352V18.7382H77.8645V18.2352ZM80.3085 20.933C80.003 20.933 79.835 21.1007 79.835 21.4055C79.835 21.9237 79.4684 22.259 78.888 22.259C78.3228 22.259 77.8645 21.9694 77.8645 20.994V19.9728H81.0112C81.3778 19.9728 81.5611 19.7899 81.5611 19.4241V18.1286C81.5611 16.3301 80.4155 15.4308 78.888 15.4308C77.3604 15.4308 76.2148 16.3301 76.2148 18.1286V21.1007C76.2148 22.8992 77.3604 23.7984 78.888 23.7984C80.446 23.7984 81.4847 22.8534 81.4847 21.4817C81.4847 21.1159 81.3014 20.933 80.9348 20.933H80.3085ZM72.6865 23.082C72.6865 23.4479 72.8698 23.6308 73.2364 23.6308H73.7863C74.1529 23.6308 74.3362 23.4479 74.3362 23.082V16.1472C74.3362 15.7814 74.1529 15.5985 73.7863 15.5985H73.2364C72.8698 15.5985 72.6865 15.7814 72.6865 16.1472V23.082ZM72.6865 14.0286C72.6865 14.3944 72.8698 14.5773 73.2364 14.5773H73.7863C74.1529 14.5773 74.3362 14.3944 74.3362 14.0286V13.5104C74.3362 13.1446 74.1529 12.9616 73.7863 12.9616H73.2364C72.8698 12.9616 72.6865 13.1446 72.6865 13.5104V14.0286ZM69.4027 18.0219C69.4027 17.3056 69.6929 17.0617 70.3956 17.0617C70.5483 17.0617 70.6858 17.0769 70.8691 17.1074C71.2357 17.1684 71.419 16.9397 71.419 16.5739V16.1319C71.419 15.7662 71.2357 15.6442 70.9455 15.5832C70.64 15.5223 70.3956 15.5223 70.1665 15.5223C68.6389 15.5223 67.753 16.1624 67.753 17.9V23.082C67.753 23.4479 67.9363 23.6308 68.3029 23.6308H68.8528C69.2193 23.6308 69.4027 23.4479 69.4027 23.082V18.0219ZM62.2849 18.2352C62.2849 17.2598 62.7431 16.9702 63.3083 16.9702C63.8735 16.9702 64.3317 17.2598 64.3317 18.2352V18.7382H62.2849V18.2352ZM64.7289 20.933C64.4234 20.933 64.2554 21.1007 64.2554 21.4055C64.2554 21.9237 63.8888 22.259 63.3083 22.259C62.7431 22.259 62.2849 21.9694 62.2849 20.994V19.9728H65.4316C65.7981 19.9728 65.9814 19.7899 65.9814 19.4241V18.1286C65.9814 16.3301 64.8358 15.4308 63.3083 15.4308C61.7808 15.4308 60.6352 16.3301 60.6352 18.1286V21.1007C60.6352 22.8992 61.7808 23.7984 63.3083 23.7984C64.8664 23.7984 65.905 22.8534 65.905 21.4817C65.905 21.1159 65.7217 20.933 65.3552 20.933H64.7289ZM59.0773 12.8092C58.7718 12.7483 58.4968 12.7483 58.2677 12.7483C56.7402 12.7483 55.8848 13.3884 55.8848 15.126V23.082C55.8848 23.4479 56.0681 23.6308 56.4346 23.6308H56.9845C57.3512 23.6308 57.5345 23.4479 57.5345 23.082V17.1379H59.0009C59.3675 17.1379 59.5508 16.955 59.5508 16.5892V16.1472C59.5508 15.7814 59.3675 15.5985 59.0009 15.5985H57.5345V15.248C57.5345 14.5316 57.7789 14.2877 58.4968 14.2877C58.6496 14.2877 58.8176 14.3029 59.0009 14.3334C59.3675 14.3944 59.5508 14.1658 59.5508 13.8V13.358C59.5508 12.9922 59.3675 12.8703 59.0773 12.8092ZM87.2437 4.02376C87.2437 2.53005 86.3119 1.79851 85.0899 1.79851C84.1582 1.79851 83.4402 2.24048 83.15 3.1093C82.8597 2.24048 82.1418 1.79851 81.2253 1.79851C79.9881 1.79851 79.0715 2.53005 79.0715 4.02376V9.75458C79.0715 9.90698 79.1479 9.99844 79.316 9.99844H79.5298C79.6978 9.99844 79.7741 9.90698 79.7741 9.75458V4.13045C79.7741 2.91113 80.431 2.45387 81.2711 2.45387C82.1113 2.45387 82.7986 2.91113 82.7986 4.13045V9.75458C82.7986 9.90698 82.8903 9.99844 83.043 9.99844H83.2722C83.4249 9.99844 83.5165 9.90698 83.5165 9.75458V4.13045C83.5165 2.91113 84.1887 2.45387 85.0288 2.45387C85.8689 2.45387 86.541 2.91113 86.541 4.13045V9.75458C86.541 9.90698 86.6174 9.99844 86.7854 9.99844H86.9993C87.1521 9.99844 87.2437 9.90698 87.2437 9.75458V4.02376ZM72.0757 1.96616C71.9077 1.96616 71.8313 2.0576 71.8313 2.21003V7.60556C71.8313 9.31258 72.8853 10.1661 74.2906 10.1661C75.6959 10.1661 76.7652 9.31258 76.7652 7.60556V2.21003C76.7652 2.0576 76.6735 1.96616 76.5208 1.96616H76.2916C76.1389 1.96616 76.0472 2.0576 76.0472 2.21003V7.55978C76.0472 8.97729 75.2682 9.51071 74.2906 9.51071C73.3282 9.51071 72.534 8.97729 72.534 7.55978V2.21003C72.534 2.0576 72.4576 1.96616 72.2896 1.96616H72.0757ZM68.9751 7.55978C68.9751 8.97729 68.1809 9.51071 67.2185 9.51071C66.2409 9.51071 65.4618 8.93151 65.4618 7.80364V7.78844C65.4618 6.66053 66.2409 6.08138 67.2185 6.08138H68.9751V7.55978ZM69.6777 4.35911C69.6777 2.652 68.6238 1.79851 67.2185 1.79851C65.859 1.79851 64.8814 2.713 64.8814 4.14571C64.8814 4.29811 64.9578 4.38959 65.1258 4.38959H65.3549C65.5077 4.38959 65.5841 4.29811 65.5841 4.16093C65.5841 3.09401 66.2867 2.4539 67.2185 2.4539C68.1961 2.4539 68.9751 2.98739 68.9751 4.4048V5.426H67.2185C65.8742 5.426 64.7439 6.21858 64.7439 7.75796V7.83413C64.7439 9.37356 65.9048 10.1661 67.2185 10.1661C68.6238 10.1661 69.6777 9.31258 69.6777 7.60556V4.35911ZM61.2613 4.02376C61.2613 2.85017 61.7959 2.54534 62.7888 2.54534C62.9721 2.54534 63.1707 2.57582 63.3693 2.6063C63.5221 2.63678 63.6137 2.54534 63.6137 2.37765V2.21C63.6137 2.04234 63.5221 1.98134 63.3846 1.9509C63.1401 1.9052 62.911 1.88994 62.6819 1.88994C61.3682 1.88994 60.5586 2.4082 60.5586 3.94758V9.75453C60.5586 9.90698 60.635 9.99844 60.803 9.99844H61.0169C61.1849 9.99844 61.2613 9.90698 61.2613 9.75453V4.02376ZM57.8858 10.0594C56.6485 10.0594 55.8848 9.57169 55.8848 8.12378V0.243872C55.8848 0.0914382 55.9764 0 56.1291 0H56.3583C56.511 0 56.6027 0.0914382 56.6027 0.243872V1.96616H58.5426C58.7107 1.96616 58.787 2.05764 58.787 2.21003V2.37765C58.787 2.54538 58.7107 2.62156 58.5426 2.62156H56.6027V8.07804C56.6027 9.11444 57.0609 9.404 57.9621 9.404C58.1455 9.404 58.344 9.37356 58.5426 9.34307C58.7107 9.31258 58.787 9.404 58.787 9.57169V9.73933C58.787 9.90698 58.7107 9.96796 58.5579 9.99844C58.3287 10.0441 58.1149 10.0594 57.8858 10.0594Z" fill="#1D1D1B"/>
</svg>